HIERARCHY
ROOT Hips
{
	OFFSET 0.00 0.00 0.00
	CHANNELS 6 Xposition Yposition Zposition Xrotation Yrotation Zrotation
	JOINT Spine
	{
		OFFSET 0.00000 3.24121 0.00000
		CHANNELS 3 Xrotation Yrotation Zrotation
		JOINT Head
		{
			OFFSET 0.00000 18.38296 0.00000
			CHANNELS 3 Xrotation Yrotation Zrotation
			End Site
			{
				OFFSET 0.00000 4.52755 0.00000
			}
		}
		JOINT LeftShoulder
		{
			OFFSET 0.00000 12.82826 0.00000
			CHANNELS 3 Xrotation Yrotation Zrotation
			JOINT LeftArm
			{
				OFFSET 7.74805 0.00000 0.00000
				CHANNELS 3 Xrotation Yrotation Zrotation
				JOINT LeftForeArm
				{
					OFFSET 10.63561 0.00000 0.00000
					CHANNELS 3 Yrotation Zrotation Xrotation
					JOINT LeftHand
					{
						OFFSET 8.34675 0.00000 0.00000
						CHANNELS 3 Xrotation Yrotation Zrotation
						JOINT LeftHandThumb1
						{
							OFFSET 0.00000 0.00000 0.00000
							CHANNELS 3 Xrotation Zrotation Yrotation
							End Site
							{
								OFFSET 0.00000 0.00000 3.93700
							}
						}
						End Site
						{
							OFFSET 3.93700 0.00000 0.00000
						}
					}
				}
			}
		}
		JOINT RightShoulder
		{
			OFFSET 0.00000 12.82826 0.00000
			CHANNELS 3 Xrotation Yrotation Zrotation
			JOINT RightArm
			{
				OFFSET -7.74805 0.00000 0.00000
				CHANNELS 3 Xrotation Yrotation Zrotation
				JOINT RightForeArm
				{
					OFFSET -10.63561 0.00000 0.00000
					CHANNELS 3 Yrotation Zrotation Xrotation
					JOINT RightHand
					{
						OFFSET -8.34675 0.00000 0.00000
						CHANNELS 3 Xrotation Yrotation Zrotation
						JOINT RightHandThumb1
						{
							OFFSET 0.00000 0.00000 0.00000
							CHANNELS 3 Xrotation Zrotation Yrotation
							End Site
							{
								OFFSET 0.00000 0.00000 3.93700
							}
						}
						End Site
						{
							OFFSET -3.93700 0.00000 0.00000
						}
					}
				}
			}
		}
	}
	JOINT LeftUpLeg
	{
		OFFSET 3.43402 0.00000 0.00000
		CHANNELS 3 Xrotation Yrotation Zrotation
		JOINT LeftLeg
		{
			OFFSET 0.00000 -15.71302 0.00000
			CHANNELS 3 Xrotation Yrotation Zrotation
			JOINT LeftFoot
			{
				OFFSET 0.00000 -14.43512 0.00000
				CHANNELS 3 Xrotation Yrotation Zrotation
				JOINT LeftToeBase
				{
					OFFSET 0.00000 -1.27828 4.77061
					CHANNELS 3 Xrotation Yrotation Zrotation
					End Site
					{
						OFFSET 0.00000 0.00000 2.95275
					}
				}
			}
		}
	}
	JOINT RightUpLeg
	{
		OFFSET -3.43402 0.00000 0.00000
		CHANNELS 3 Xrotation Yrotation Zrotation
		JOINT RightLeg
		{
			OFFSET 0.00000 -15.71302 0.00000
			CHANNELS 3 Xrotation Yrotation Zrotation
			JOINT RightFoot
			{
				OFFSET 0.00000 -14.43512 0.00000
				CHANNELS 3 Xrotation Yrotation Zrotation
				JOINT RightToeBase
				{
					OFFSET 0.00000 -1.27828 4.77061
					CHANNELS 3 Xrotation Yrotation Zrotation
					End Site
					{
						OFFSET 0.00000 0.00000 2.95275
					}
				}
			}
		}
	}
}
MOTION
Frames: 7
Frame Time: 0.008333
 1.7434 32.7864 -8.4981 71.5315 -50.3948 54.2869 -39.4527 -11.8981 12.4643 23.0830 -7.3673 -1.6389 47.3155 21.2629 6.0536 -53.8765 -33.0163 -93.3897 -17.6245 -0.0000 11.3219 1.9298 17.9740 -6.2313 33.1476 -0.0000 26.2537 44.7637 -23.4915 -12.4541 -55.2138 -19.5028 74.9539 89.9259 0.0000 -20.0642 13.2724 15.0942 -42.1709 32.8623 0.0000 -24.3270 -32.5706 25.3802 0.9949 -2.3490 0.0000 -0.0000 -9.4036 20.9486 15.2244 1.6450 -0.0000 -0.0000 -54.5452 -17.3552 -2.7504 111.5562 0.0000 0.0000 44.3247 -1.6418 9.1504 52.8933 -0.0000 0.0000
 1.7506 32.7818 -8.5119 71.6022 -50.5471 54.4904 -39.2426 -11.8470 12.3834 23.1296 -7.3447 -1.6852 47.3864 21.2577 5.9907 -53.9216 -32.9605 -93.2939 -17.7736 -0.0000 11.3433 1.8822 18.0313 -6.0602 33.1476 -0.0000 26.2537 44.7495 -23.4725 -12.5299 -55.2362 -19.3566 75.0359 89.8448 0.0000 -20.1629 13.3453 15.1564 -42.2182 32.8623 0.0000 -24.3270 -32.4639 25.4680 0.9558 -2.3283 -0.0000 -0.0000 -9.4406 21.0222 15.3146 1.6944 -0.0000 0.0000 -54.9424 -17.3840 -2.7945 110.5177 0.0000 -0.0000 44.2266 -2.1697 9.0677 53.0843 -0.0000 -0.0000
 1.7551 32.7776 -8.5246 71.6331 -50.6960 54.6278 -39.0275 -11.8283 12.3292 23.1885 -7.3277 -1.7772 47.4732 21.2375 5.9338 -53.9666 -32.8706 -93.2144 -17.9330 -0.0000 11.4414 1.8466 18.0516 -5.9398 33.1476 -0.0000 26.2537 44.7187 -23.4295 -12.6175 -55.2072 -19.2386 75.0863 89.8274 0.0000 -20.2382 13.3831 15.1701 -42.2768 32.8623 0.0000 -24.3270 -32.3450 25.5119 0.9277 -2.3217 -0.0000 0.0000 -9.4782 21.0928 15.4500 1.7174 0.0000 0.0000 -55.2826 -17.4994 -2.8523 109.5476 0.0000 0.0000 44.0636 -2.8678 9.1386 53.2692 0.0000 0.0000
 1.7606 32.7726 -8.5359 71.6331 -50.8367 54.7494 -38.8133 -11.8159 12.2623 23.2756 -7.3196 -1.8867 47.5167 21.2198 5.8723 -54.0051 -32.8273 -93.1474 -18.0470 -0.0000 11.4792 1.8203 17.9717 -5.8809 33.1476 -0.0000 26.2537 44.7049 -23.3996 -12.7055 -55.2013 -19.1519 75.1541 89.8039 0.0000 -20.2889 13.4346 15.1815 -42.3696 32.8623 0.0000 -24.3270 -32.2090 25.5609 0.8695 -2.3303 0.0000 0.0000 -9.4943 21.1692 15.5840 1.7418 0.0000 -0.0000 -55.6367 -17.5428 -2.9354 108.6454 -0.0000 0.0000 43.8444 -3.6769 9.9743 53.9189 0.0000 0.0000
 1.7681 32.7674 -8.5449 71.6143 -50.9566 54.8554 -38.6190 -11.7949 12.2041 23.3735 -7.3385 -2.0217 47.5580 21.1794 5.8072 -54.0602 -32.8308 -93.0908 -18.1823 -0.0000 11.5014 1.7826 18.0995 -5.7207 33.1476 -0.0000 26.2537 44.6921 -23.4051 -12.8198 -55.1884 -19.1126 75.2465 89.7796 0.0000 -20.3559 13.4933 15.2184 -42.4311 32.8623 0.0000 -24.3270 -32.0787 25.5972 0.7921 -2.3386 -0.0000 -0.0000 -9.5095 21.2443 15.7346 1.7848 -0.0000 0.0000 -56.0008 -17.5918 -3.0632 107.8100 0.0000 0.0000 43.6589 -4.3712 10.7057 54.3318 -0.0000 -0.0000
 1.7749 32.7633 -8.5543 71.6138 -51.0735 54.9551 -38.4426 -11.7659 12.1708 23.5095 -7.3618 -2.1667 47.5801 21.1274 5.7652 -54.1079 -32.8091 -93.0425 -18.2778 -0.0000 11.5176 1.7731 18.0654 -5.7008 33.1476 -0.0000 26.2537 44.7026 -23.4071 -12.9079 -55.1769 -19.0823 75.3176 89.7794 0.0000 -20.4328 13.5623 15.2888 -42.4535 32.8623 0.0000 -24.3270 -31.9559 25.6215 0.7353 -2.3679 -0.0000 -0.0000 -9.5184 21.3403 15.8660 1.8452 0.0000 -0.0000 -56.3613 -17.7164 -3.1737 106.9748 0.0000 -0.0000 43.7079 -4.6290 10.1399 53.6774 -0.0000 0.0000
 1.7835 32.7594 -8.5624 71.5906 -51.1645 55.0312 -38.2821 -11.7464 12.1322 23.6587 -7.4095 -2.3228 47.6158 21.1018 5.6919 -54.2513 -32.8804 -93.0466 -18.2845 -0.0000 11.5128 1.8022 18.0827 -5.7883 33.1476 -0.0000 26.2537 44.7079 -23.3837 -12.9926 -55.1293 -19.0608 75.3397 89.8393 0.0000 -20.5014 13.5512 15.2428 -42.5133 32.8623 0.0000 -24.3270 -31.8487 25.6478 0.6676 -2.3898 0.0000 0.0000 -9.5175 21.4016 15.9742 1.8621 0.0000 -0.0000 -56.7404 -17.8115 -3.3008 106.1557 -0.0000 0.0000 43.5857 -5.0399 10.0827 53.5527 0.0000 0.0000
